<svg width="96" height="85" viewBox="0 0 96 85" fill="none" xmlns="http://www.w3.org/2000/svg">
<path d="M19.5535 81.1858L19.4458 81.3041L17.3401 79.3865L23.4592 72.6672C24.0266 72.0442 24.5334 71.7411 24.9797 71.758C25.4188 71.7828 25.8946 72.0286 26.4073 72.4954C26.912 72.9551 27.2933 73.4394 27.5512 73.9483L27.4295 74.0106C27.1874 73.516 26.8652 73.0856 26.463 72.7193C26.1949 72.4751 25.9133 72.4279 25.6183 72.5776C25.3154 72.7201 24.9305 73.0477 24.4636 73.5603L18.4415 80.1731L19.5535 81.1858Z" fill="#020202"/>
<path d="M6.78748 63.9193L6.69635 63.7323L12.4495 60.9285C13.9549 60.1948 15.2073 59.9523 16.2065 60.201C17.1962 60.4544 17.9247 61.0605 18.392 62.0194C18.6864 62.6234 18.8837 63.1621 18.9838 63.6354C19.0744 64.1134 19.0621 64.6118 18.9471 65.1306C18.7265 66.1874 17.7148 67.1551 15.9122 68.0336L10.159 70.8374L9.57725 69.6436L15.316 66.8469C17.0611 65.9964 18.0976 65.1649 18.4255 64.3525C18.5823 63.9438 18.6434 63.57 18.6087 63.2309C18.5693 62.8823 18.4491 62.5018 18.2482 62.0895C17.7996 61.169 17.1065 60.599 16.1689 60.3795C15.2171 60.1552 14.0029 60.4028 12.5262 61.1225L6.78748 63.9193Z" fill="#020202"/>
<path d="M15.0176 51.515L15.018 51.723L3.81803 51.7456L3.81693 51.2016L14.1555 44.5247L3.80349 44.5456L3.80307 44.3376L15.0031 44.315L15.0054 45.483L5.73761 51.5337L15.0176 51.515Z" fill="#020202"/>
<path d="M6.33948 33.3831L6.1907 33.3243L7.23814 30.6759L7.38692 30.7347L7.09858 31.4638L17.216 35.4652L17.5044 34.7362L17.6532 34.795L16.6057 37.4434L16.4569 37.3846L16.7276 36.7002L6.61017 32.6987L6.33948 33.3831Z" fill="#020202"/>
<path d="M17.1002 24.5621C15.7261 23.1908 15.0157 21.8188 14.9691 20.4461C14.9224 19.0583 15.4228 17.8397 16.4701 16.7902C17.5175 15.7408 18.6596 15.2154 19.8966 15.2142C21.1411 15.2054 22.4429 15.8791 23.8019 17.2354C25.1609 18.5916 25.8562 19.9486 25.8877 21.3062C25.9192 22.6638 25.3812 23.8976 24.2736 25.0074C23.3167 25.9663 22.2575 26.4765 21.096 26.538C20.4926 26.5688 19.8476 26.4223 19.1609 26.0987C18.4742 25.76 17.7873 25.2478 17.1002 24.5621ZM16.5495 16.9372C15.7885 17.6998 15.5028 18.6655 15.6926 19.8344C15.8898 20.9957 16.6453 22.2319 17.9591 23.543C19.2728 24.8541 20.4614 25.5807 21.5251 25.723C22.5887 25.8652 23.501 25.555 24.2621 24.7925C25.0306 24.0224 25.3162 23.0566 25.119 21.8953C24.9217 20.7189 24.1737 19.4827 22.8751 18.1867C21.5689 16.8831 20.3765 16.1603 19.2978 16.018C18.2266 15.8683 17.3105 16.1747 16.5495 16.9372Z" fill="#020202"/>
<path d="M30.1964 7.43771C31.3439 6.96703 32.3682 6.58221 33.2692 6.28323C35.7698 5.45348 37.2973 5.87383 37.8515 7.54427C38.0867 8.25294 38.1245 8.94279 37.9651 9.61382C37.8056 10.2848 37.336 10.8509 36.5562 11.3119L41.2915 15.4218L39.8792 15.8904L35.2349 11.8515L33.2759 12.5015L34.9438 17.5281L33.6834 17.9463L30.1964 7.43771ZM33.3196 6.43509C32.7324 6.62993 32.1266 6.87028 31.5022 7.15614L33.2255 12.3497L35.473 11.6039C36.8803 11.0695 37.2716 9.8608 36.6468 7.97775C36.3914 7.20834 35.984 6.6917 35.4244 6.42784C34.8615 6.15385 34.1599 6.15627 33.3196 6.43509Z" fill="#020202"/>
<path d="M66.512 8.79664C65.7584 8.07989 64.9826 7.55599 64.1845 7.22495C63.3963 6.89799 62.7111 6.81005 62.1287 6.96113C61.5464 7.11221 61.1326 7.48333 60.8874 8.07449C60.5891 8.79373 60.7326 9.50571 61.3179 10.2104C61.5834 10.5169 61.8826 10.8257 62.2154 11.137C62.5621 11.4425 62.9007 11.7677 63.2311 12.1126C63.5615 12.4575 63.8471 12.8128 64.0881 13.1783C64.3291 13.5439 64.4693 13.9716 64.5086 14.4614C64.5521 14.9413 64.445 15.4916 64.1876 16.1123C63.9342 16.7232 63.5451 17.1739 63.0205 17.4643C62.4958 17.7548 61.9545 17.8767 61.3964 17.83C60.8524 17.7775 60.2552 17.6164 59.6049 17.3467C58.393 16.844 57.4831 16.1144 56.8753 15.1578L56.9982 15.0702C57.2171 15.4612 57.548 15.8468 57.9908 16.2268C58.4476 16.601 58.947 16.9006 59.4889 17.1253C60.2869 17.4564 61.0424 17.5561 61.7552 17.4245C62.4819 17.2871 62.9945 16.8588 63.2928 16.1396C63.6198 15.3514 63.5008 14.5803 62.9359 13.8263C62.6827 13.4903 62.3888 13.1548 62.0543 12.8197C61.7297 12.4887 61.4022 12.1508 61.0718 11.8059C60.7455 11.4511 60.4618 11.091 60.2209 10.7254C59.6764 9.92216 59.5922 9.06732 59.9682 8.16087C60.2665 7.44163 60.749 6.96045 61.4157 6.71734C62.0865 6.46438 62.9047 6.53816 63.8702 6.93868C64.8456 7.34328 65.7664 7.92151 66.6324 8.67337L66.512 8.79664Z" fill="#020202"/>
<path d="M68.4366 22.1764L68.305 22.0366L79.739 17.8425L79.9178 17.9158L74.4688 28.5836L73.5366 27.5934L75.244 24.2719L72.0414 20.8703L68.4366 22.1764ZM78.1408 18.6658L72.2018 20.8072L75.3276 24.1273L78.1408 18.6658Z" fill="#020202"/>
<path d="M77.4623 33.9188L77.3972 33.7213L88.0344 30.2155L88.2047 30.7321L80.4563 40.294L90.2881 37.0537L90.3532 37.2512L79.716 40.757L79.3504 39.6477L86.276 31.014L77.4623 33.9188Z" fill="#020202"/>
<path d="M80.095 51.1842L80.2135 49.8615L91.2094 50.8472L91.4566 48.0902L91.6159 48.1045L91.0017 54.957L90.8423 54.9428L91.0909 52.1699L80.095 51.1842Z" fill="#020202"/>
<path d="M76.5073 62.9332L77.1064 61.748L86.9591 66.7286L88.2078 64.2583L88.3506 64.3305L85.2468 70.4705L85.104 70.3984L86.36 67.9138L76.5073 62.9332Z" fill="#020202"/>
<path d="M78.8876 78.2697L78.9971 78.3864L76.9195 80.3345L76.8101 80.2178L77.382 79.6815L69.94 71.7448L69.3681 72.2811L69.2587 72.1644L71.3362 70.2163L71.4456 70.333L70.9087 70.8365L78.3508 78.7731L78.8876 78.2697Z" fill="#020202"/>
</svg>
